<svg width="138" height="138" viewBox="0 0 138 138" fill="none" xmlns="http://www.w3.org/2000/svg">
<circle cx="69" cy="69" r="69" fill="#76BD5E"/>
<path d="M74.2499 40.7C77.3332 40.7 79.7999 43.1666 79.7999 46.25C79.7999 49.3333 77.3332 51.8 74.2499 51.8C71.1666 51.8 68.6999 49.3333 68.6999 46.25C68.6999 43.1666 71.1666 40.7 74.2499 40.7ZM61.9166 107.917V103.908H56.6749L64.0749 82.9416L71.1666 92.4999V103.908H68.0832V107.917H89.6666V103.908H76.7166V87.8749L69.0082 73.9999L71.1666 65.3666L74.5583 70.9166H89.6666V65.0583H78.5666L72.3999 54.8833C71.4749 53.3416 69.6249 52.4166 67.7749 52.4166C67.1582 52.4166 66.8499 52.7249 66.2332 52.7249L49.5833 57.9666V73.9999H55.1333V62.5916L61.9166 60.7416L50.8166 103.908H40.3333V107.917" fill="white"/>
</svg>
