<svg width="138" height="138" fill="none" xmlns="http://www.w3.org/2000/svg"><circle cx="69" cy="69" r="69" fill="#76BD5E"/><path d="M86.083 65.583V38.25H51.917v13.667H38.25V99.75h27.333V86.083h6.834V99.75H99.75V65.583H86.083zM51.917 92.917h-6.834v-6.834h6.834v6.834zm0-13.667h-6.834v-6.833h6.834v6.833zm0-13.667h-6.834V58.75h6.834v6.833zM65.583 79.25H58.75v-6.833h6.833v6.833zm0-13.667H58.75V58.75h6.833v6.833zm0-13.666H58.75v-6.834h6.833v6.834zM79.25 79.25h-6.833v-6.833h6.833v6.833zm0-13.667h-6.833V58.75h6.833v6.833zm0-13.666h-6.833v-6.834h6.833v6.834zm13.667 41h-6.834v-6.834h6.834v6.834zm0-13.667h-6.834v-6.833h6.834v6.833z" fill="#fff"/></svg>