<svg width="138" height="138" fill="none" xmlns="http://www.w3.org/2000/svg"><circle cx="69" cy="69" r="69" fill="#76BD5E"/><path d="M109.313 104.62c-.218 0-.5-.025-.818-.062.235-.627 2.786-7.91-4.219-10.436-18.061-6.515-28.012-14.87-29.653-43.533 1.752-.183 2.727-.334 2.727-.334l1.623-14.888c0-.496-10.782-.898-17.9-.898-7.119 0-17.901.402-17.901.9l1.512 13.888s.971.365 2.935.783c1.225 20.253-2.949 17.299-3.998 30.525-.275 3.454.932 6.665 3.369 8.945l1.57 19.021h7.722s.134-7.196 1.209-10.703c10.163 0 15.333 10.703 19.298 10.703h32.526c.686 0 .686-3.911-.002-3.911zm-63.39-66.783H76.22l-1.114 10.215c-2.553.287-7.576.736-14.092.736-7.24 0-11.899-.895-14.055-1.436l-1.036-9.515zm60.641 64.314H78.539c-.484-.343-1.41-1.163-2.175-1.841-4.184-3.704-11.187-9.904-19.888-9.904-3.507 0-6.356-1.08-8.24-3.12-1.588-1.72-2.353-4.036-2.155-6.526.388-4.905 1.198-7.334 2.053-9.906 1.374-4.13 2.671-8.084 1.98-20.36 1.29.199 2.587.354 3.887.467v21.773h2.749V51.148c1.313.066 2.728.108 4.264.108 4.533 0 8.34-.212 11.142-.44 1.702 29.515 12.022 38.681 31.282 45.63 1.414.51 2.334 1.266 2.812 2.313.49 1.07.471 2.364.314 3.392z" fill="#fff"/></svg>