<svg width="138" height="138" fill="none" xmlns="http://www.w3.org/2000/svg"><circle cx="69" cy="69" r="69" fill="#76BD5E"/><path d="M92.37 48.765C92 37.255 81.076 29 69 29c-12.154 0-23 8.317-23.37 19.765C40.2 52.746 37 59.042 37 65.846v23.638a2.472 2.472 0 002.462 2.47h8.615v13.577A2.473 2.473 0 0050.539 108h12.307c2.416 0 4.585-1.003 6.154-2.592A8.559 8.559 0 0075.154 108h12.308a2.473 2.473 0 002.461-2.469V91.953h8.615A2.472 2.472 0 00101 89.484V65.846c0-6.804-3.2-13.1-8.63-17.08zM69 33.937c9.923 0 18.692 6.79 18.462 15.754-.2 7.7-8.939 11.634-14.862 7.576l3.37-3.379c3.845-3.857 3.845-10.122 0-13.98-6.17-6.187-16.831-1.79-16.831 6.99a9.843 9.843 0 002.892 6.99l3.369 3.38c-5.908 4.057-14.662.138-14.862-7.577-.23-9.01 8.585-15.754 18.462-15.754zm0 19.967L65.508 50.4c-3.077-3.086-.923-8.456 3.492-8.456 4.37 0 6.6 5.324 3.492 8.456L69 53.903zM41.923 87.016v-21.17c0-4.305 1.677-8.332 4.585-11.325.4 1.08.923 2.098 1.569 3.04v29.47h-6.154v-.015zM85 103.062h-9.846c-2.03 0-3.692-1.666-3.692-3.703A2.472 2.472 0 0069 96.891a2.472 2.472 0 00-2.462 2.468c0 2.037-1.661 3.703-3.692 3.703H53V61.989c5.123 2.808 11.323 2.453 16-1.266 4.662 3.688 10.846 4.09 16 1.266v41.073zm11.077-16.046h-6.154V57.545c.646-.941 1.17-1.96 1.57-3.04 2.922 2.994 4.584 7.02 4.584 11.326v21.185z" fill="#fff"/></svg>