<svg width="138" height="138" fill="none" xmlns="http://www.w3.org/2000/svg"><circle cx="69" cy="69" r="69" fill="#76BD5E"/><path fill-rule="evenodd" clip-rule="evenodd" d="M43.074 34.695c8.495-1.7 19.667-1.923 27.307 5.706a2.657 2.657 0 01.775 1.88v58.438a2.656 2.656 0 01-4.537 1.88c-4.478-4.483-11.236-5.626-18.434-4.887-7.14.744-14.131 3.278-18.339 5.381A2.656 2.656 0 0126 100.719V42.281a2.657 2.657 0 011.466-2.374l1.19 2.374-1.19-2.374.01-.006.022-.01.07-.032a24.81 24.81 0 011.168-.547 68.837 68.837 0 0114.344-4.617h-.006zm-11.761 9.286v52.637c4.494-1.823 10.327-3.57 16.33-4.187 6.072-.627 12.681-.122 18.2 2.975V43.44c-5.646-4.935-13.976-5.078-21.727-3.527a63.53 63.53 0 00-12.803 4.07z" fill="#fff"/><path fill-rule="evenodd" clip-rule="evenodd" d="M93.926 34.695c-8.49-1.7-19.667-1.923-27.307 5.706a2.657 2.657 0 00-.775 1.88v58.438a2.656 2.656 0 004.537 1.88c4.478-4.483 11.236-5.626 18.434-4.887 7.14.744 14.131 3.278 18.339 5.381a2.655 2.655 0 003.846-2.374V42.281a2.656 2.656 0 00-1.466-2.374l-1.19 2.374 1.19-2.374-.011-.006-.021-.01-.069-.032-.25-.122a68.826 68.826 0 00-15.257-5.042zm11.762 9.286v52.637c-4.495-1.823-10.328-3.57-16.331-4.187-6.072-.627-12.681-.122-18.2 2.975V43.44c5.646-4.935 13.976-5.078 21.727-3.527 4.4.9 8.692 2.264 12.804 4.07z" fill="#fff"/></svg>