<svg width="138" height="138" fill="none" xmlns="http://www.w3.org/2000/svg"><circle cx="69" cy="69" r="69" fill="#76BD5E"/><path d="M68 35.5c-19.024 0-34.5 15.476-34.5 34.5s15.476 34.5 34.5 34.5 34.5-15.476 34.5-34.5S87.024 35.5 68 35.5zm0 5.75c15.913 0 28.75 12.837 28.75 28.75S83.913 98.75 68 98.75 39.25 85.913 39.25 70 52.087 41.25 68 41.25zm15.902 8.806l-5.48 5.388 4.134 4.134 5.39-5.48-4.044-4.042zM68 55.625c-7.906 0-14.375 6.469-14.375 14.375S60.094 84.375 68 84.375 82.375 77.906 82.375 70 75.906 55.625 68 55.625zm0 5.75A8.584 8.584 0 0176.625 70 8.584 8.584 0 0168 78.625 8.584 8.584 0 0159.375 70 8.584 8.584 0 0168 61.375zm0 5.75A2.884 2.884 0 0065.125 70 2.884 2.884 0 0068 72.875 2.884 2.884 0 0070.875 70 2.884 2.884 0 0068 67.125zM53.444 80.422l-5.388 5.48 4.042 4.045 5.48-5.39-4.134-4.135z" fill="#fff"/></svg>