<svg width="138" height="138" fill="none" xmlns="http://www.w3.org/2000/svg"><circle cx="69" cy="69" r="69" fill="#76BD5E"/><path d="M88.915 54.094a8.026 8.026 0 01-.416-10.9.665.665 0 00-.038-.905l-7.585-7.593a.668.668 0 00-.945 0l-12.09 12.09a4.06 4.06 0 00-.981 1.588v0a4.067 4.067 0 01-2.57 2.578v0c-.599.2-1.143.535-1.59.981L31.696 82.931a.668.668 0 000 .945l7.585 7.585a.665.665 0 00.904.038A8.025 8.025 0 0151.5 102.815a.667.667 0 00.038.904l7.585 7.585a.67.67 0 00.945 0L91.075 80.3c.446-.447.782-.992.982-1.59v0a4.067 4.067 0 012.57-2.578v0a4.06 4.06 0 001.587-.982l12.09-12.09a.67.67 0 000-.945l-7.585-7.585a.665.665 0 00-.904-.038 8.027 8.027 0 01-10.9-.398v0z" stroke="#fff" stroke-width="4" stroke-miterlimit="10"/><path d="M69.055 53.138L66.217 50.3M76.62 60.704l-1.892-1.89m9.458 9.458l-1.89-1.893M92.7 76.783l-2.838-2.838" stroke="#fff" stroke-width="4" stroke-miterlimit="10" stroke-linecap="round"/></svg>