<svg width="138" height="138" fill="none" xmlns="http://www.w3.org/2000/svg"><circle cx="69" cy="69" r="69" fill="#76BD5E"/><path d="M84.258 42.396H73.415c-1.96.006-1.886 2.926 0 2.91h10.843v1.492H73.415c-1.949-.017-1.877 2.902 0 2.91h10.843v1.525H73.415c-1.949 0-1.877 2.917 0 2.91h10.843v1.453H73.415c-1.908.015-1.877 2.935 0 2.944h10.843v1.457H73.415c-1.908-.006-1.916 2.91 0 2.91h10.843v1.454H73.415c-1.908.006-1.916 2.925 0 2.91h10.843v1.49H73.415c-1.908-.017-1.916 2.899 0 2.91h10.843v1.45H73.415c-1.908-.001-1.877 2.92 0 2.912h10.843v28.328c.006 4.316 6.563 4.238 6.582 0V38.068c-.019-1.971-1.638-4.464-4.303-4.472H73.415c-1.96.001-1.886 2.922 0 2.91l10.843.035v1.45H73.415c-1.957-.008-1.883 2.91 0 2.912h10.843v1.493zM72.67 92.618c-.006-5.038-5.23-10.458-11.47-6.948V66.398l-4.035-31.785c-.084-.84-.797-1.039-1.276-1.053-.494.014-1.485.212-1.593 1.053L50.28 66.398V85.67c-6.24-3.51-11.295 1.944-11.296 6.91.001 4.417 3.402 8.046 8.004 8.035 4.637.011 7.972-4.056 7.972-8.036V72.56h1.56v20.02c0 4.456 3.45 7.754 7.285 7.963-.064 2.443.733 5.928 2.234 7.31 1.76 1.622 3.855-.453 2.995-2.142-.83-1.573-1.644-2.504-.983-5.937 2.765-1.28 4.612-3.972 4.618-7.155zm-25.503 3.964a3.966 3.966 0 010-7.932c2.162.012 3.924 1.786 3.94 3.968a3.981 3.981 0 01-3.94 3.964zm13.37-3.964a3.983 3.983 0 013.941-3.968 3.974 3.974 0 013.94 3.968 3.97 3.97 0 01-3.94 3.964 3.977 3.977 0 01-3.94-3.964z" fill="#fff"/></svg>