<svg width="138" height="138" fill="none" xmlns="http://www.w3.org/2000/svg"><circle cx="69" cy="69" r="69" fill="#76BD5E"/><path d="M110.84 99.578l-5.553-19.562V37.422a2.935 2.935 0 00-2.938-2.938H37.724a2.934 2.934 0 00-2.937 2.938v42.594l-5.554 19.561c-.689 1.919.725 3.939 2.763 3.939h76.081c2.038 0 3.452-2.02 2.763-3.939zM41.396 41.093h57.281v36.26H41.396v-36.26zm20.957 55.812l.744-3.396h13.797l.743 3.396H62.353zm20.563 0l-1.754-7.959a.735.735 0 00-.716-.578H59.553a.728.728 0 00-.716.579l-1.753 7.958H36.861l3.883-13.678H99.33l3.883 13.678H82.916z" fill="#fff"/></svg>