<svg width="138" height="138" fill="none" xmlns="http://www.w3.org/2000/svg"><circle cx="69" cy="69" r="69" fill="#76BD5E"/><path d="M29 65.5c0 .075 0 .131.019.206l5.71 42.394c.304 2.231 2.24 3.9 4.517 3.9h64.129c2.504 0 4.554-2.025 4.554-4.5v-5.906l6.052-44.906v-6.207c0-.825-.683-1.5-1.518-1.5H82.125c-.835 0-1.518.675-1.518 1.5v6.207l2.79 20.737c-3.056-.225-4.004-1.05-4.27-1.425a1.087 1.087 0 01-.17-.956c.208-.45.17-.975-.114-1.388a1.48 1.48 0 00-1.29-.656c-3.017 0-5.351.581-7.267 1.444l1.176-8.738c0-.075.019-.131.019-.206 0-7.331-4.155-14.044-10.777-17.362.133-.282.171-.582.114-.882l-1.518-9c-.114-.731-.759-1.256-1.499-1.256h-1.518v-6H66.91c.834 0 1.517-.675 1.517-1.5v-6c0-.825-.683-1.5-1.517-1.5h-.095l-22.768 1.5a1.55 1.55 0 00-1.347 1.031l-1.518 4.5c-.266.788.17 1.632.967 1.894.152.056.323.075.475.075h1.518v6h-1.518a1.52 1.52 0 00-1.5 1.256l-1.517 9c-.057.3 0 .6.114.882C33.155 51.456 29 58.168 29 65.5zM91.232 109H54.614a1.324 1.324 0 01-1.328-1.312V92.312c0-.712.588-1.312 1.328-1.312h36.808c.72 0 1.328.581 1.328 1.313v15.375c0 .712-.588 1.312-1.328 1.312h-.19zM57.84 85h30.357v3H57.84v-3zm47.054 22.5c0 .825-.683 1.5-1.518 1.5h-7.798a4.41 4.41 0 00.209-1.312V103h9.107v4.5zm.19-7.5h-9.297v-7.688c0-2.38-1.954-4.312-4.364-4.312h-.19v-4.65a7.87 7.87 0 00-.892-2.813 5.605 5.605 0 00-3.832-2.887l-2.656-19.631h26.885L105.083 100zm-21.44-48h27.321v3H83.643v-3zm-7.04 25.65c1.291 1.894 4.156 2.85 8.558 2.85 1.138 0 1.916.45 2.466 1.406.02.038.038.075.057.094H64.86c.645-.487 1.272-1.013 1.879-1.519 2.466-2.062 4.819-4.031 9.22-4.406.096.563.323 1.106.646 1.575zM45.299 26.425l20.13-1.313V28H44.768l.531-1.575zM47.214 31h6.072v6h-6.072v-6zm-4.288 15l1.006-6H56.53l1.006 6h-14.61zm5.806 3h3.036c9.183.019 16.64 7.331 16.696 16.406l-1.48 11.025c-.777.582-1.498 1.181-2.2 1.763C62.336 80.237 60.23 82 56.32 82c-.834 0-1.517.675-1.517 1.5V88h-.19c-2.41 0-4.364 1.931-4.364 4.313v15.375c0 .449.076.881.209 1.312H39.245c-.758 0-1.403-.562-1.498-1.294l-5.711-42.3C32.093 56.331 39.549 49.02 48.732 49z" fill="#fff"/><path d="M73.018 94c-3.359 0-6.072 2.681-6.072 6s2.713 6 6.072 6c3.358 0 6.071-2.681 6.071-6s-2.713-6-6.071-6zm0 9c-1.67 0-3.036-1.35-3.036-3s1.366-3 3.036-3 3.035 1.35 3.035 3-1.366 3-3.035 3zm24.286-30c4.326 0 7.589-1.931 7.589-4.5s-3.263-4.5-7.59-4.5c-4.325 0-7.589 1.931-7.589 4.5s3.264 4.5 7.59 4.5zm0-6c2.94 0 4.553 1.125 4.553 1.5s-1.613 1.5-4.553 1.5c-2.941 0-4.554-1.125-4.554-1.5s1.613-1.5 4.554-1.5zm-56.161 4.5h18.214c.835 0 1.518-.675 1.518-1.5v-9c0-.825-.683-1.5-1.518-1.5H41.143c-.835 0-1.518.675-1.518 1.5v9c0 .825.683 1.5 1.518 1.5zm1.518-9h15.178v6H42.661v-6z" fill="#fff"/></svg>