<svg width="138" height="138" fill="none" xmlns="http://www.w3.org/2000/svg"><circle cx="69" cy="69" r="69" fill="#76BD5E"/><path d="M102.295 65.795c-.713.76-1.45 1.568-2.21 2.424-.76.855-1.723 1.996-2.887 3.422-1.165 1.425-2.103 2.851-2.816 4.277-.713 1.426-1.07 2.661-1.07 3.707 0 1.283-2.221 2.364-6.665 3.244-4.444.879-9.826 1.319-16.147 1.319-6.321 0-11.703-.44-16.147-1.32-4.444-.879-6.666-1.96-6.666-3.243 0-1.378-.641-3.101-1.924-5.168-1.283-2.068-2.483-3.731-3.6-4.99a80.94 80.94 0 00-3.315-3.53C35.616 62.801 34 59 34 54.532c0-4.42 1.556-8.186 4.67-11.3 3.112-3.112 6.879-4.669 11.299-4.669 1.093 0 2.233.12 3.422.357-.76 1.949-1.141 4.11-1.141 6.487 0 5.086 1.568 9.315 4.705 12.69a219.9 219.9 0 01-.142-8.127c0-4.42 1.33-8.187 3.992-11.3C63.466 35.557 66.698 34 70.5 34c3.802 0 7.034 1.556 9.695 4.67 2.662 3.112 3.993 6.879 3.993 11.299 0 2.899-.048 5.608-.143 8.127 3.137-3.375 4.705-7.604 4.705-12.69 0-2.376-.38-4.538-1.14-6.487a17.451 17.451 0 013.421-.356c4.42 0 8.187 1.556 11.3 4.669 3.113 3.113 4.669 6.88 4.669 11.3 0 4.42-1.568 8.174-4.705 11.263zM70.465 88.75c6.297 0 11.679-.451 16.146-1.355 4.468-.902 6.701-1.972 6.701-3.207v18.25c0 1.235-2.233 2.305-6.7 3.208-4.468.903-9.85 1.354-16.148 1.354-6.297 0-11.667-.451-16.111-1.354-4.444-.903-6.666-1.973-6.666-3.208v-18.25c0 1.283 2.222 2.364 6.666 3.243 4.444.88 9.814 1.319 16.111 1.319z" fill="#fff"/></svg>