<svg width="138" height="138" fill="none" xmlns="http://www.w3.org/2000/svg"><circle cx="69" cy="69" r="69" fill="#76BD5E"/><path d="M93.292 92.848v5.985a7.082 7.082 0 01-7.084 7.084H50.792a7.085 7.085 0 01-7.084-7.084V85.73c-1.629-.637-3.718-1.062-7.083-1.062a3.542 3.542 0 110-7.084c2.904 0 5.206.284 7.083.744v-6.764c-1.629-.638-3.718-1.063-7.083-1.063a3.542 3.542 0 110-7.083c2.904 0 5.206.283 7.083.743v-6.764c-1.629-.638-3.718-1.063-7.083-1.063a3.542 3.542 0 010-7.083c2.904 0 5.206.283 7.083.744v-7.827a7.083 7.083 0 017.084-7.084h35.416a7.084 7.084 0 017.084 7.084v7.65c6.304 1.098 8.995 3.435 9.597 4.002a3.569 3.569 0 010 5.029c-1.381 1.381-3.222 1.346-5.029 0 0 0-3.683-2.515-11.652-2.515-4.462 0-7.402 1.453-10.802 3.188-3.683 1.806-7.827 3.896-13.99 3.896-1.274 0-2.443 0-3.541-.142v-7.119c1.062.177 2.231.177 3.542.177 4.462 0 7.402-1.452 10.802-3.152 3.683-1.841 7.862-3.931 13.99-3.931v-7.083H50.791v56.666h35.416V91.75c5.313 0 6.977 1.027 7.084 1.098zm-7.084-29.431c-6.127 0-10.306 2.09-13.99 3.931-3.4 1.7-6.339 3.152-10.801 3.152-1.31 0-2.48 0-3.542-.177v7.119c1.098.141 2.267.141 3.542.141 6.162 0 10.306-2.09 13.99-3.895 3.4-1.7 6.339-3.188 10.801-3.188 7.969 0 11.652 2.515 11.652 2.515 1.807 1.38 3.648 1.38 5.029 0 1.382-1.382 1.382-3.613 0-5.03-.743-.743-5.17-4.568-16.68-4.568zm0 14.166c-6.127 0-10.306 2.09-13.99 3.932-3.4 1.7-6.339 3.152-10.801 3.152-1.31 0-2.48 0-3.542-.177v7.118c1.098.142 2.267.142 3.542.142 6.162 0 10.306-2.09 13.99-3.896 3.4-1.7 6.339-3.187 10.801-3.187 7.969 0 11.652 2.514 11.652 2.514 1.807 1.382 3.648 1.382 5.029 0 1.382-1.381 1.382-3.612 0-5.029-.743-.744-5.17-4.569-16.68-4.569z" fill="#fff"/></svg>