<svg width="138" height="138" fill="none" xmlns="http://www.w3.org/2000/svg"><circle cx="69" cy="69" r="69" fill="#76BD5E"/><path d="M74.813 88.188l5.312-16.875 4.375 1.25-5.313 16.875-4.374-1.25zm6.25-40.938c2.812 0 5.312-2.5 5.312-5.312 0-2.813-2.188-5.313-5.313-5.313-2.812 0-5.312 2.5-5.312 5.313 0 2.812 2.5 5.312 5.313 5.312zm12.5 45.625c-1.876.938-3.75 1.875-5.938 2.188-2.188.312-4.375.312-6.563-.313l-19.687-5.937 7.5-21.25-7.813-9.375 9.063-5s3.438 9.062 3.75 10c.313.937.938 1.562 1.875 1.875l12.813 3.75 1.562-5.625-2.813-1.25 1.876-6.563-4.376-1.25-1.562 6.25-3.75-1.562-4.375-12.188c-1.25-2.5-4.375-3.75-7.188-2.5l-14.374 7.813c-2.813 1.562-3.75 5-2.188 7.5.313.625 9.375 10 9.375 10L55.437 87.25 34.188 81l-.937 4.063 46.563 13.75c5.312 1.562 10.937.937 15.937-1.875l-2.188-4.063z" fill="#fff"/></svg>