<svg width="138" height="138" fill="none" xmlns="http://www.w3.org/2000/svg"><circle cx="69" cy="69" r="69" fill="#76BD5E"/><path d="M74.25 40.7a5.527 5.527 0 015.55 5.55 5.527 5.527 0 01-5.55 5.55 5.527 5.527 0 01-5.55-5.55 5.527 5.527 0 015.55-5.55zm-12.333 67.217v-4.009h-5.242l7.4-20.966 7.092 9.558v11.408h-3.084v4.009h21.584v-4.009h-12.95V87.875L69.008 74l2.159-8.633 3.391 5.55h15.109v-5.859h-11.1L72.4 54.883c-.925-1.541-2.775-2.466-4.625-2.466-.617 0-.925.308-1.542.308l-16.65 5.242V74h5.55V62.592l6.784-1.85-11.1 43.166H40.333v4.009" fill="#fff"/></svg>