<svg width="138" height="138" fill="none" xmlns="http://www.w3.org/2000/svg"><circle cx="69" cy="69" r="69" fill="#76BD5E"/><path d="M98.969 100h-8.125c-.55 0-1.026-.201-1.428-.603a1.952 1.952 0 01-.603-1.428c0-.55.2-1.026.602-1.428a1.952 1.952 0 011.429-.603h2.031V69.53h-.064c-.253 5.586-1.491 10.707-3.713 15.362-2.222 4.654-5.152 8.336-8.791 11.044C76.667 98.647 72.732 100 68.5 100s-8.167-1.354-11.807-4.063c-3.639-2.708-6.57-6.39-8.791-11.044-2.222-4.655-3.46-9.776-3.714-15.362h-.063v26.406h2.031c.55 0 1.026.201 1.428.603.402.402.603.879.603 1.429s-.2 1.026-.602 1.428a1.952 1.952 0 01-1.429.603h-8.125c-.55 0-1.026-.201-1.428-.603A1.952 1.952 0 0136 97.969c0-.55.201-1.026.603-1.428a1.952 1.952 0 011.428-.603h2.032V61.406c0-.55.2-1.026.602-1.428a1.952 1.952 0 011.429-.603c.55 0 1.026.201 1.428.603.402.402.603.878.603 1.428v4.063h.063c.254-5.586 1.492-10.707 3.714-15.362 2.221-4.654 5.152-8.336 8.791-11.044C60.333 36.353 64.268 35 68.5 35s8.167 1.354 11.807 4.063c3.639 2.708 6.57 6.39 8.791 11.044 2.222 4.655 3.46 9.776 3.713 15.362h.064v-4.063c0-.55.201-1.026.603-1.428a1.952 1.952 0 011.428-.603c.55 0 1.026.201 1.428.603.403.402.603.878.603 1.428v34.532h2.032c.55 0 1.026.2 1.428.602.402.402.603.879.603 1.429s-.201 1.026-.603 1.428a1.952 1.952 0 01-1.428.603zM68.5 43.125c-2.962 0-5.681 1.09-8.157 3.269-2.475 2.18-4.443 5.142-5.903 8.887s-2.19 7.818-2.19 12.219.73 8.474 2.19 12.22c1.46 3.744 3.428 6.707 5.903 8.886 2.476 2.18 5.195 3.269 8.157 3.269 2.962 0 5.681-1.09 8.157-3.269 2.475-2.18 4.443-5.142 5.903-8.887s2.19-7.818 2.19-12.219-.73-8.474-2.19-12.22c-1.46-3.744-3.428-6.707-5.903-8.886-2.476-2.18-5.195-3.269-8.157-3.269zM54.567 60.391a1.964 1.964 0 011.206-.92 2.101 2.101 0 011.555.158l24.375 12.187c.466.297.772.71.92 1.238a1.927 1.927 0 01-.19 1.524 1.94 1.94 0 01-1.206.952 2.101 2.101 0 01-1.555-.159L55.297 63.184c-.508-.297-.825-.72-.952-1.27s-.053-1.058.222-1.523zm23.074 2.793l-16.25-8.125a2.095 2.095 0 01-.92-1.27 1.993 1.993 0 01.19-1.555 1.826 1.826 0 011.206-.92 2.22 2.22 0 011.555.19l16.25 8.125c.508.296.825.709.952 1.238a2.032 2.032 0 01-.222 1.523 1.94 1.94 0 01-1.206.952 2.101 2.101 0 01-1.555-.158zm-18.282 8.632l16.25 8.125c.508.297.826.72.953 1.27s.052 1.069-.223 1.555a1.826 1.826 0 01-1.206.92 2.22 2.22 0 01-1.555-.19l-16.25-8.125c-.508-.296-.825-.72-.952-1.27a2.004 2.004 0 01.222-1.523 1.964 1.964 0 011.206-.92 2.101 2.101 0 011.555.158z" fill="#fff"/></svg>