<svg width="138" height="138" fill="none" xmlns="http://www.w3.org/2000/svg"><circle cx="69" cy="69" r="69" fill="#76BD5E"/><g clip-path="url(#clip0)"><path d="M107 63.298c0-9.42-3.655-18.284-10.3-24.956C90.073 31.67 81.245 28 71.848 28s-18.21 3.67-24.854 10.342c-4.445 4.464-7.562 9.912-9.128 15.87h-4.35c-.886 0-1.693.492-2.105 1.286a2.379 2.379 0 00.159 2.463 15.342 15.342 0 012.737 9.992c-.19.143-.364.317-.49.524l-5.57 8.038c-2.99 4.305-2.974 10.088.048 14.36l1.345 1.907a17.104 17.104 0 013.021 11.613 2.396 2.396 0 00.601 1.842 2.336 2.336 0 001.756.795h48.901c9.002 0 16.327-7.355 16.327-16.394v-5.354c0-.334-.032-.667-.08-.985 4.43-6.068 6.835-13.344 6.835-21zm-46.37-4.32a19.846 19.846 0 00-1.55 8.466H39.067a20.086 20.086 0 00-1.55-8.467H60.63zm6.123-3.48a2.365 2.365 0 00-2.104-1.286h-8.59c3.148-5.481 9.049-9.182 15.788-9.182 10.03 0 18.194 8.197 18.194 18.268 0 6.72-3.623 12.598-9.018 15.775h-9.73a12.235 12.235 0 00-1.376-2.574l-5.569-8.038a2.568 2.568 0 00-.49-.524 15.342 15.342 0 012.737-9.992c.506-.715.553-1.668.158-2.447zM37.47 102.25a21.74 21.74 0 00-3.971-12.216l-1.345-1.906a7.793 7.793 0 01-.032-8.896l4.873-7.022h24.19l4.761 6.863H53.48c-3.402 0-6.154 2.78-6.154 6.18v5.353c0 4.543 1.85 8.658 4.84 11.644H37.47zm46.416 0h-20.25c-5.71 0-10.473-4.178-11.422-9.642h43.079c-.934 5.464-5.696 9.642-11.407 9.642zm11.58-14.408H52.04v-2.59c0-.778.633-1.43 1.424-1.43h40.595c.775 0 1.424.636 1.424 1.43l-.016 2.59zm-1.407-8.77h-5.506c3.86-4.13 6.234-9.674 6.234-15.774 0-12.693-10.284-23.034-22.94-23.034-9.445 0-17.56 5.75-21.072 13.947h-7.958c3.86-12.422 15.425-21.445 29.03-21.445 16.77 0 30.407 13.693 30.407 30.532a30.443 30.443 0 01-4.968 16.696 6.033 6.033 0 00-3.227-.921z" fill="#fff"/></g><defs><clipPath id="clip0"><path fill="#fff" transform="translate(26 28)" d="M0 0h81v79H0z"/></clipPath></defs></svg>