<svg width="138" height="138" fill="none" xmlns="http://www.w3.org/2000/svg"><circle cx="69" cy="69" r="69" fill="#76BD5E"/><g clip-path="url(#clip0)" fill="#fff"><path d="M103.609 78.794l-10.16-10.036a2.152 2.152 0 00-3.034 0l-9.793 9.736L69.73 89.301c-4.39 4.365-11.537 4.365-15.927 0-4.391-4.365-4.391-11.47 0-15.835l11.515-11.45 9.169-9.115a2.124 2.124 0 000-3.018L64.37 39.826a2.152 2.152 0 00-3.034 0l-9.17 9.116L40.654 60.39c-11.623 11.642-11.537 30.452.193 42.007 11.645 11.47 30.435 11.47 42.079 0l10.89-10.828 9.794-9.758a2.123 2.123 0 000-3.017zM62.843 44.362l7.082 7.04-6.135 6.078-7.08-7.04 6.133-6.078zM79.847 99.38c-9.987 9.929-26.173 9.929-36.16 0-9.987-9.93-9.987-26.021 0-35.95l9.987-9.93 7.06 7.019-9.987 9.93c-6.07 6.034-6.07 15.835 0 21.89 6.07 6.057 15.928 6.035 22.019 0l9.362-9.308 7.082 7.04-9.363 9.31zm12.398-12.326l-7.082-7.04 6.759-6.72 7.081 7.04-6.758 6.72zm-7.232-58.998a2.153 2.153 0 00-3.035-.064l-.065.064-6.35 6.313a2.123 2.123 0 000 3.017c.388.385.926.62 1.507.62a2.23 2.23 0 001.529-.62l6.349-6.313a2.123 2.123 0 00.065-3.017zm3.551 16.242h-8.975a2.152 2.152 0 00-2.153 2.14c0 1.177.969 2.14 2.153 2.14h8.975a2.152 2.152 0 002.152-2.14c0-1.177-.968-2.14-2.152-2.14zM68.482 22a2.152 2.152 0 00-2.152 2.14v8.923c0 1.199.969 2.14 2.152 2.14a2.153 2.153 0 002.153-2.14V24.14c0-1.177-.969-2.14-2.153-2.14zm46.599 36.015a2.152 2.152 0 00-3.035 0l-6.349 6.313c-.84.834-.84 2.204.021 3.017.84.835 2.196.835 3.035 0l6.328-6.313a2.123 2.123 0 000-3.017zm3.767 15.386h-8.976a2.153 2.153 0 00-2.152 2.14c0 1.177.969 2.14 2.152 2.14h8.976a2.153 2.153 0 002.152-2.14c0-1.177-.969-2.14-2.152-2.14zM98.615 52.109a2.153 2.153 0 00-2.152 2.14v8.923c0 1.199.969 2.14 2.153 2.14a2.153 2.153 0 002.152-2.14V54.25c0-1.177-.969-2.14-2.153-2.14z"/></g><defs><clipPath id="clip0"><path fill="#fff" transform="translate(32 22)" d="M0 0h89v89H0z"/></clipPath></defs></svg>