<svg width="138" height="138" fill="none" xmlns="http://www.w3.org/2000/svg"><circle cx="69" cy="69" r="69" fill="#76BD5E"/><path d="M77.203 58.443c-2.493 0-4.913.49-7.199 1.44a1.492 1.492 0 00-.802 1.946 1.49 1.49 0 001.945.802 15.627 15.627 0 016.056-1.203c8.67 0 15.735 7.07 15.735 15.744 0 8.673-7.066 15.743-15.735 15.743-8.668 0-15.734-7.07-15.734-15.743 0-2.095.4-4.144 1.202-6.06a1.492 1.492 0 00-.801-1.946 1.49 1.49 0 00-1.945.802 18.682 18.682 0 00-1.44 7.204c0 10.322 8.387 18.714 18.704 18.714 10.316 0 18.703-8.392 18.703-18.714 0-10.323-8.372-18.73-18.689-18.73z" fill="#fff"/><path d="M77.203 89.336c6.71 0 12.172-5.466 12.172-12.18 0-6.713-5.463-12.178-12.172-12.178-6.71 0-12.172 5.466-12.172 12.179s5.463 12.179 12.172 12.179zm0-21.388c5.077 0 9.203 4.13 9.203 9.209 0 5.08-4.126 9.208-9.203 9.208-5.076 0-9.203-4.129-9.203-9.208 0-5.08 4.127-9.209 9.203-9.209z" fill="#fff"/><path d="M98.474 51.314h-4.512l-5.18-8.778a1.501 1.501 0 00-1.277-.728H66.916a1.5 1.5 0 00-1.276.728l-5.18 8.778h-8.491V49.53a5.342 5.342 0 00-5.344-5.347 5.342 5.342 0 00-5.344 5.347v1.783h-3.755c-4.157 0-7.526 3.386-7.526 7.53V95.47c0 4.159 3.384 7.53 7.526 7.53h60.948c4.156 0 7.526-3.386 7.526-7.53V58.844c0-4.159-3.384-7.53-7.526-7.53zm-30.712-6.535H86.66l3.859 6.535H63.903l3.86-6.535zM44.25 49.53a2.383 2.383 0 012.375-2.376A2.383 2.383 0 0149 49.53v1.783h-4.75V49.53zm58.781 45.939c0 2.51-2.048 4.56-4.557 4.56H37.526a4.57 4.57 0 01-4.557-4.56V58.844c0-2.51 2.048-4.56 4.557-4.56h60.948a4.569 4.569 0 014.557 4.56V95.47z" fill="#fff"/><path d="M77.203 74.26a2.89 2.89 0 012.895 2.897 1.49 1.49 0 001.484 1.485 1.49 1.49 0 001.484-1.485 5.868 5.868 0 00-5.863-5.867 1.49 1.49 0 00-1.484 1.485 1.49 1.49 0 001.484 1.485zm0-36.358a1.49 1.49 0 001.484-1.486v-7.93A1.49 1.49 0 0077.204 27a1.49 1.49 0 00-1.484 1.485v7.931a1.49 1.49 0 001.484 1.486zm7.066 0a1.52 1.52 0 001.054-.431l5.448-5.45a1.48 1.48 0 10-2.094-2.095l-5.447 5.45a1.48 1.48 0 001.039 2.526zm-15.171-.446c.297.297.668.43 1.054.43a1.52 1.52 0 001.054-.43 1.48 1.48 0 000-2.094L65.76 29.91a1.48 1.48 0 10-2.093 2.094l5.432 5.451zM50.484 63.493h-7.718a1.49 1.49 0 00-1.485 1.485 1.49 1.49 0 001.485 1.485h7.718a1.49 1.49 0 001.485-1.485 1.49 1.49 0 00-1.485-1.485zm14.547 2.97a1.56 1.56 0 001.054-.43c.282-.268.43-.654.43-1.055 0-.386-.163-.772-.43-1.055a1.469 1.469 0 00-1.054-.43c-.4 0-.772.163-1.054.43a1.47 1.47 0 00-.43 1.055c0 .386.163.772.43 1.054.282.268.654.431 1.054.431z" fill="#fff"/></svg>