<svg width="138" height="138" fill="none" xmlns="http://www.w3.org/2000/svg"><circle cx="69" cy="69" r="69" fill="#76BD5E"/><path d="M106.683 34H30.317A1.32 1.32 0 0029 35.317v71.1a1.32 1.32 0 001.317 1.316h3.95v3.95A1.32 1.32 0 0035.583 113h65.834a1.32 1.32 0 001.316-1.317v-3.95h3.95a1.32 1.32 0 001.317-1.316v-71.1A1.32 1.32 0 00106.683 34zm-6.583 76.367H36.9v-2.634h63.2v2.634zm5.267-5.267H31.633V36.633h73.734V105.1z" fill="#fff"/><path d="M96.15 49.8h-55.3a6.582 6.582 0 00-6.583 6.583v38.184a6.581 6.581 0 006.583 6.583h55.3a6.581 6.581 0 006.583-6.583V56.383A6.581 6.581 0 0096.15 49.8zM40.883 87.983h-.033a1.32 1.32 0 00-1.317 1.317 6.48 6.48 0 001.35 3.95h-.033a1.32 1.32 0 00-1.317 1.317 6.48 6.48 0 001.35 3.95h-.033a3.94 3.94 0 01-3.95-3.95V56.383a3.94 3.94 0 013.95-3.95h55.3a3.94 3.94 0 013.95 3.95V68.25c-4.806-9.02-15.092-13.644-25.017-11.241v-1.942H61.917v7.9h2.6a22.45 22.45 0 00-6.501 14.483h-2.683V64.283h-3.95v-3.95h3.95V57.7H44.8v2.633h3.95v3.95H44.8V77.45h-3.95a1.32 1.32 0 00-1.317 1.317 6.48 6.48 0 001.35 3.95h-.033a1.32 1.32 0 00-1.317 1.316c0 1.432.478 2.815 1.35 3.95zM72.45 57.7v2.633h-7.9V57.7h7.9zM52.7 66.917V77.45h-5.267V66.917H52.7zm25.017 31.6h-31.6a3.939 3.939 0 01-3.72-2.634h39.056a3.976 3.976 0 01-3.736 2.634zm0-5.267h-31.6a3.939 3.939 0 01-3.72-2.633h39.056a3.976 3.976 0 01-3.736 2.633zm0-5.267h-31.6a3.939 3.939 0 01-3.72-2.633h39.056a3.976 3.976 0 01-3.736 2.633zm0-5.266h-31.6a3.939 3.939 0 01-3.72-2.634h39.056a3.976 3.976 0 01-3.736 2.634zm5.233 5.266a6.478 6.478 0 001.35-3.95 1.32 1.32 0 00-1.317-1.316h-.033a6.478 6.478 0 001.35-3.95 1.32 1.32 0 00-1.317-1.317H67.25c.724-7.242 7.176-12.508 14.418-11.784 7.241.724 12.508 7.176 11.784 14.417a13.175 13.175 0 01-9.546 11.373 6.3 6.3 0 00.379-2.14A1.32 1.32 0 0082.967 88l-.017-.017zm17.15 6.584a3.94 3.94 0 01-3.95 3.95h-5.283a22.58 22.58 0 009.233-9.233v5.283zm-14.45 3.21c-.823.23-1.68.41-2.519.526a6.603 6.603 0 001.169-3.736c0-.165-.033-.33-.099-.478 8.46-2.123 13.611-10.698 11.488-19.174-2.123-8.46-10.698-13.61-19.174-11.487a15.8 15.8 0 00-11.9 14.006h-3.933a19.822 19.822 0 017.85-14.484h6.551v-3.226c10.5-2.913 21.38 3.226 24.293 13.727 2.929 10.517-3.226 21.396-13.727 24.325zm-39.533-58.51H35.583a1.32 1.32 0 00-1.316 1.316v5.267a1.32 1.32 0 001.316 1.317h10.534a1.32 1.32 0 001.316-1.317v-5.267a1.32 1.32 0 00-1.316-1.316zM44.8 44.533h-7.9V41.9h7.9v2.633zm17.117-5.266H51.383a1.32 1.32 0 00-1.316 1.316v5.267a1.32 1.32 0 001.316 1.317h10.534a1.32 1.32 0 001.316-1.317v-5.267a1.32 1.32 0 00-1.316-1.316zM60.6 44.533h-7.9V41.9h7.9v2.633zm42.133-5.266H100.1v7.9h2.633v-7.9zm-5.266 0h-2.634v7.9h2.634v-7.9zm-5.267 0h-2.633v7.9H92.2v-7.9z" fill="#fff"/></svg>