<svg width="138" height="138" fill="none" xmlns="http://www.w3.org/2000/svg"><circle cx="69" cy="69" r="69" fill="#76BD5E"/><g clip-path="url(#clip0)" fill="#fff"><path d="M68.5 91.585h-.109c-.999 0-1.816.799-1.816 1.798s.799 1.816 1.798 1.834h.109c.999 0 1.816-.817 1.816-1.816a1.795 1.795 0 00-1.798-1.816zm20.108-8.465c5.757-3.07 8.936-7.266 8.936-11.825 0-4.559-3.178-8.773-8.936-11.825-5.395-2.87-12.534-4.45-20.108-4.45-7.575 0-14.695 1.58-20.108 4.45-5.758 3.07-8.936 7.266-8.936 11.825 0 4.56 3.178 8.773 8.936 11.825 5.395 2.87 12.533 4.45 20.108 4.45 7.574 0 14.695-1.58 20.108-4.45zM68.5 58.653c12.515 0 23.286 4.795 25.12 10.808H79.036v-1.453c0-1-.817-1.817-1.816-1.817H59.78c-.999 0-1.816.817-1.816 1.817v1.47H43.379c1.816-6.03 12.588-10.825 25.12-10.825zm-6.902 11.171h13.804v2.906H61.598v-2.906zm-18.219 3.288h14.586v1.435c0 .999.817 1.816 1.816 1.816H77.22c.999 0 1.816-.817 1.816-1.816v-1.453H93.64c-1.816 6.03-12.588 10.843-25.14 10.843-12.532 0-23.285-4.795-25.12-10.825z"/><path d="M105.191 82.34v-9.555c0-.127-.018-.254-.036-.382.018-.363.036-.744.036-1.108 0-6.557-3.923-12.642-11.062-17.165-6.866-4.36-15.984-6.757-25.629-6.757-9.645 0-18.764 2.398-25.63 6.757-7.138 4.505-11.061 10.608-11.061 17.165v11.062c0 6.558 3.923 12.642 11.061 17.165 6.867 4.36 15.985 6.757 25.63 6.757s18.763-2.397 25.63-6.757c7.137-4.522 11.06-10.626 11.06-17.182zM92.186 96.452c-6.303 3.996-14.713 6.194-23.686 6.194s-17.383-2.198-23.686-6.194c-6.049-3.833-9.373-8.846-9.373-14.114v-.617c1.326 1.798 2.98 3.487 4.96 5.013 5.267 4.069 12.587 6.92 20.597 7.992 1 .127 1.908-.563 2.035-1.562a1.807 1.807 0 00-1.563-2.035C46.395 89.096 35.442 80.76 35.442 71.296c0-5.267 3.324-10.28 9.373-14.095 6.303-3.996 14.713-6.194 23.686-6.194s17.383 2.198 23.686 6.194c6.049 3.833 9.373 8.846 9.373 14.095 0 9.464-10.953 17.801-26.03 19.835a1.817 1.817 0 00-1.562 2.035c.127.908.909 1.58 1.799 1.58.072 0 .163 0 .236-.018 8.01-1.072 15.33-3.905 20.598-7.992 1.98-1.526 3.651-3.215 4.959-5.013v.617c0 5.268-3.324 10.281-9.373 14.114zm20.998-1.834c-.999 0-1.817.817-1.817 1.816 0 7.121-5.794 12.933-12.932 12.933-1 0-1.817.818-1.817 1.817S97.436 113 98.435 113C107.57 113 115 105.571 115 96.434c0-.999-.817-1.816-1.816-1.816z"/><path d="M103.684 96.434a5.233 5.233 0 01-5.231 5.232c-1 0-1.817.817-1.817 1.816 0 .999.818 1.816 1.817 1.816 4.886 0 8.864-3.978 8.864-8.864 0-.999-.818-1.816-1.817-1.816s-1.816.817-1.816 1.816zm-65.118 12.933c-7.139 0-12.933-5.812-12.933-12.933 0-.999-.818-1.816-1.817-1.816S22 95.435 22 96.434C22 105.571 29.43 113 38.566 113c.999 0 1.816-.817 1.816-1.816 0-.999-.817-1.817-1.816-1.817z"/><path d="M38.566 101.666a5.233 5.233 0 01-5.232-5.232c0-.999-.817-1.816-1.816-1.816-.999 0-1.816.817-1.816 1.816 0 4.886 3.978 8.864 8.864 8.864.999 0 1.816-.817 1.816-1.816 0-.999-.817-1.816-1.816-1.816zm18.49-73.292c6.322-6.322 16.584-6.322 22.905 0 .364.363.818.526 1.29.526a1.86 1.86 0 001.29-.526 1.809 1.809 0 000-2.561c-7.738-7.738-20.308-7.738-28.046 0a1.809 1.809 0 000 2.56 1.809 1.809 0 002.562 0z"/><path d="M74.585 35.548a1.86 1.86 0 001.29-.526 1.809 1.809 0 000-2.561c-4.07-4.07-10.681-4.07-14.75 0a1.809 1.809 0 000 2.56 1.809 1.809 0 002.561 0 6.76 6.76 0 014.814-1.997 6.76 6.76 0 014.813 1.998 1.82 1.82 0 001.272.526zm-7.375 3.197c-.345.345-.526.8-.526 1.29 0 .472.2.944.526 1.29.327.345.8.526 1.29.526s.945-.2 1.29-.526c.345-.327.526-.8.526-1.29 0-.472-.2-.945-.526-1.29-.327-.345-.8-.526-1.29-.526s-.945.181-1.29.526z"/></g><defs><clipPath id="clip0"><path fill="#fff" transform="translate(22 20)" d="M0 0h93v93H0z"/></clipPath></defs></svg>