<svg width="138" height="138" fill="none" xmlns="http://www.w3.org/2000/svg"><circle cx="69" cy="69" r="69" fill="#76BD5E"/><path d="M106 92.258v-.187l-3.483-47.554a4.915 4.915 0 00-4.883-4.54h-17.76v-1.323A3.65 3.65 0 0076.22 35H63.78a3.65 3.65 0 00-3.655 3.654v1.322H42.366a4.914 4.914 0 00-4.883 4.541L34 92.071v.186c0 .063.016.11.031.156v.016l2.022 8.071a3.644 3.644 0 003.545 2.768h.622v1.322a2.423 2.423 0 002.41 2.41h2.489a2.423 2.423 0 002.41-2.41v-1.322h44.942v1.322a2.423 2.423 0 002.41 2.41h2.488a2.423 2.423 0 002.41-2.41v-1.322h.623a3.643 3.643 0 003.545-2.768l2.022-8.071v-.016c.015-.046.015-.108.031-.155zm-2.426-1.275H92.315V52.26h8.429l2.83 38.722zm-53.557 0V52.26h7.62v1.322a3.65 3.65 0 003.655 3.655h17.416a3.65 3.65 0 003.655-3.655V52.26h7.62v38.722H50.017zM80.03 52.26v1.322a1.32 1.32 0 01-1.322 1.322H61.292a1.32 1.32 0 01-1.322-1.322V52.26h20.06zM62.458 38.654c0-.73.59-1.321 1.322-1.321h12.44c.731 0 1.322.59 1.322 1.321v1.322H62.458v-1.322zM42.366 42.31h55.268a2.589 2.589 0 012.566 2.38l.388 5.24h-61.16l.388-5.24a2.562 2.562 0 012.55-2.38zm-3.11 9.952h8.429v38.722h-11.26l2.831-38.722zm5.94 52.329c0 .046-.03.077-.077.077H42.63c-.047 0-.078-.031-.078-.077v-1.322h2.644v1.322zm52.251 0c0 .046-.031.077-.078.077h-2.488c-.046 0-.078-.031-.078-.077v-1.322h2.644v1.322zm4.245-4.65c-.14.591-.668.995-1.275.995H39.598a1.3 1.3 0 01-1.275-.995l-1.664-6.625h66.682l-1.649 6.625z" fill="#fff"/><path d="M70 73.566a7.393 7.393 0 00-7.387 7.386A7.393 7.393 0 0070 88.34a7.393 7.393 0 007.386-7.386A7.393 7.393 0 0070 73.566zm5.054 7.386c0 .98-.28 1.882-.762 2.66L67.34 76.66a4.983 4.983 0 012.643-.747 5.044 5.044 0 015.07 5.038zm-10.108 0c0-.98.28-1.881.762-2.659l6.951 6.951a4.983 4.983 0 01-2.644.747 5.044 5.044 0 01-5.07-5.038zm-8.631.078a3.65 3.65 0 00-3.654 3.655 3.65 3.65 0 003.654 3.654 3.65 3.65 0 003.655-3.654 3.65 3.65 0 00-3.655-3.655zm0 4.977a1.32 1.32 0 110-2.644 1.32 1.32 0 110 2.644zm0-14.929a3.65 3.65 0 00-3.654 3.654 3.65 3.65 0 003.654 3.655 3.65 3.65 0 003.655-3.655 3.65 3.65 0 00-3.655-3.654zm0 4.976a1.32 1.32 0 110-2.644 1.32 1.32 0 110 2.644zm0-14.929a3.65 3.65 0 00-3.654 3.655 3.65 3.65 0 003.654 3.654 3.65 3.65 0 003.655-3.654 3.65 3.65 0 00-3.655-3.655zm0 4.977a1.32 1.32 0 110-2.644 1.32 1.32 0 110 2.644zm27.37 14.928a3.65 3.65 0 00-3.655 3.655 3.65 3.65 0 003.655 3.654 3.65 3.65 0 003.654-3.654 3.65 3.65 0 00-3.654-3.655zm0 4.977a1.32 1.32 0 110-2.644 1.32 1.32 0 110 2.644zm0-14.929a3.65 3.65 0 00-3.655 3.654 3.65 3.65 0 003.655 3.655 3.65 3.65 0 003.654-3.655 3.65 3.65 0 00-3.654-3.654zm0 4.976a1.32 1.32 0 110-2.644 1.32 1.32 0 110 2.644zm0-7.62a3.65 3.65 0 003.654-3.654 3.65 3.65 0 00-3.654-3.655 3.65 3.65 0 00-3.655 3.655 3.65 3.65 0 003.655 3.654zm0-4.976a1.32 1.32 0 110 2.644 1.32 1.32 0 110-2.644zm-8.709-3.577h-9.952a2.422 2.422 0 00-2.41 2.41v4.977a2.422 2.422 0 002.41 2.41h9.952a2.423 2.423 0 002.41-2.41v-4.976a2.423 2.423 0 00-2.41-2.41zm.078 7.387a.074.074 0 01-.078.078h-9.952a.074.074 0 01-.078-.078v-4.976c0-.047.031-.078.078-.078h9.952c.047 0 .078.03.078.078v4.976z" fill="#fff"/></svg>