<svg width="138" height="138" fill="none" xmlns="http://www.w3.org/2000/svg"><circle cx="69" cy="69" r="69" fill="#76BD5E"/><path d="M41.523 102.836a18.553 18.553 0 0018.199-22.175 18.555 18.555 0 00-36.753 3.62 18.575 18.575 0 0018.554 18.555zm0-31.172a12.618 12.618 0 11-12.617 12.617 12.632 12.632 0 0112.617-12.617zm33.399 12.617a18.555 18.555 0 1018.555-18.554A18.576 18.576 0 0074.922 84.28zm18.555-12.617a12.615 12.615 0 0112.374 15.079 12.615 12.615 0 01-17.203 9.195 12.616 12.616 0 01-7.789-11.657 12.632 12.632 0 0112.618-12.617zm-14.49-31.881a6.325 6.325 0 100-12.65 6.325 6.325 0 000 12.65z" fill="#fff"/><path d="M55.431 65.411l9.1 8.979v16.57h5.938V73.769a4.484 4.484 0 00-1.326-3.17l-9.514-9.386 12.33-12.33 10.793 11.05a4.481 4.481 0 003.186 1.34h5.312v-5.937h-4.687l-17.16-17.57-.089.087-1.559-1.559-20.78 20.782 8.396 8.396.06-.06z" fill="#fff"/></svg>