<svg width="138" height="138" fill="none" xmlns="http://www.w3.org/2000/svg"><circle cx="69" cy="69" r="69" fill="#76BD5E"/><path d="M94.11 50.703h-9.376v-6.25a6.228 6.228 0 00-6.25-6.25h-18.75a6.228 6.228 0 00-6.25 6.25v6.25H44.11a6.228 6.228 0 00-6.25 6.25v34.375a6.228 6.228 0 006.25 6.25h50a6.228 6.228 0 006.25-6.25V56.953c0-3.469-2.78-6.25-6.25-6.25zm-34.376-6.25h18.75v6.25h-18.75v-6.25zM94.11 91.328h-50v-6.25h50v6.25zm0-15.625h-50v-18.75h9.375v6.25h6.25v-6.25h18.75v6.25h6.25v-6.25h9.375v18.75z" fill="#fff"/></svg>