<svg width="138" height="138" fill="none" xmlns="http://www.w3.org/2000/svg"><circle cx="69" cy="69" r="69" fill="#76BD5E"/><path d="M70 46.395l-.86.261-34.376 11.517-7.815 2.577 4.551 1.458V86.27c-1.642.954-2.75 2.695-2.75 4.73a5.5 5.5 0 1011 0c0-2.035-1.108-3.776-2.75-4.73V64.105l5.5 1.801V80c0 2.255 1.375 4.125 3.008 5.418 1.634 1.284 3.663 2.191 6.1 3.005C56.487 90.046 62.916 91 70 91s13.513-.951 18.392-2.58c2.437-.81 4.466-1.718 6.1-3.005 1.633-1.29 3.008-3.16 3.008-5.415V65.906l7.736-2.58 7.815-2.576-7.818-2.58-34.375-11.514-.858-.261zm0 5.761l25.781 8.594L70 69.344 44.219 60.75 70 52.156zM48 67.798l21.142 7.046.858.258.86-.261L92 67.796V80c0 .028.011.347-.86 1.031-.87.688-2.429 1.554-4.47 2.236C82.596 84.623 76.587 85.5 70 85.5c-6.586 0-12.595-.874-16.673-2.236-2.035-.679-3.597-1.548-4.466-2.233C47.986 80.344 48 80.027 48 80V67.796v.002z" fill="#fff"/></svg>