<svg width="138" height="138" fill="none" xmlns="http://www.w3.org/2000/svg"><circle cx="69" cy="69" r="69" fill="#76BD5E"/><path d="M69 74.417c5.66 0 10.25-4.59 10.25-10.25 0-5.661-4.59-10.25-10.25-10.25s-10.25 4.589-10.25 10.25c0 5.66 4.59 10.25 10.25 10.25z" fill="#fff"/><path d="M89.927 36.833H48.073a6.413 6.413 0 00-6.406 6.407v41.854a6.413 6.413 0 006.406 6.406h17.51v6.833H51.917v6.834h34.166v-6.834H72.417V91.5h17.51a6.413 6.413 0 006.406-6.406V43.24a6.413 6.413 0 00-6.406-6.407zM69 81.25c-9.42 0-17.083-7.663-17.083-17.083 0-9.42 7.663-17.084 17.083-17.084 9.42 0 17.083 7.664 17.083 17.084S78.42 81.25 69 81.25z" fill="#fff"/></svg>