<svg width="138" height="138" fill="none" xmlns="http://www.w3.org/2000/svg"><circle cx="69" cy="69" r="69" fill="#76BD5E"/><path d="M98.852 82.63l5.065-5.065-5.065-5.065-12.644 12.644-30.352-30.352L68.5 42.148l-5.065-5.065-5.064 5.065-5.065-5.065-7.579 7.58-5.065-5.065-5.064 5.065 5.064 5.064-7.579 7.58 5.065 5.064-5.065 5.065 5.065 5.064 12.644-12.644 30.352 30.352L68.5 102.852l5.064 5.065 5.065-5.065 5.065 5.065 7.579-7.579 5.064 5.064 5.065-5.064-5.065-5.065 7.58-7.58-5.065-5.064z" fill="#fff"/></svg>