<svg width="138" height="138" fill="none" xmlns="http://www.w3.org/2000/svg"><circle cx="69" cy="69" r="69" fill="#76BD5E"/><g clip-path="url(#clip0)"><path d="M86.515 72.23l5.982-5.945a14.81 14.81 0 003.582.145 1.235 1.235 0 001.119-1.45c-.114-.629-.697-1.047-1.33-.999-1.167.097-2.35.032-3.501-.226a1.227 1.227 0 00-1.135.323L84.78 70.49l-8.121-8.072 6.451-6.412a1.21 1.21 0 00.325-1.128c-.86-3.883.324-7.879 3.145-10.699 2.399-2.384 5.738-3.593 9.078-3.367l-7.555 7.508a1.228 1.228 0 00-.324 1.16l1.783 7.283c.114.451.454.79.908.902l7.328 1.772c.421.097.859-.016 1.167-.322l7.554-7.508a11.632 11.632 0 01-3.388 9.023 11.345 11.345 0 01-2.334 1.788 1.214 1.214 0 00-.487 1.563c.308.66 1.119.902 1.751.532a13.977 13.977 0 002.805-2.16c3.566-3.544 4.976-8.764 3.663-13.614a1.25 1.25 0 00-.875-.87 1.2 1.2 0 00-1.184.322l-8.754 8.7-5.933-1.433-1.442-5.897 8.753-8.7c.308-.307.438-.758.325-1.177a1.25 1.25 0 00-.876-.87c-4.88-1.305-10.132.097-13.698 3.641-3.258 3.239-4.717 7.782-3.94 12.278l-5.981 5.945-.94-.934a2.453 2.453 0 00-2.87-.42l-3.988-3.963.163-.161c.664-.66 1.102-1.547 1.15-2.481a3.712 3.712 0 00-1.102-2.884l-.275-.274C70.06 45.017 77.08 38.685 83.58 35.817a1.22 1.22 0 00.713-1.32 1.236 1.236 0 00-.616-.855c-7.717-4.495-17.589-3.158-24.025 3.239l-2.675 2.658-.032-.032a3.767 3.767 0 00-2.659-1.096 3.739 3.739 0 00-2.658 1.096l-11.413 11.31c-.486.484-.47 1.241 0 1.724.162.162.292.339.39.532.632 1.24.13 3.062-1.168 4.35-1.297 1.29-3.064 1.773-4.328 1.177a2.093 2.093 0 01-.584-.403 1.253 1.253 0 00-1.75 0l-6.42 6.396a1.2 1.2 0 000 1.724L40.33 80.206c.113.112.26.225.421.29a1.245 1.245 0 001.346-.274l6.42-6.38a1.23 1.23 0 00.015-1.724 2.388 2.388 0 01-.405-.564c-.616-1.257-.13-3.03 1.167-4.335 1.297-1.288 3.13-1.772 4.377-1.16.211.097.39.226.552.387a1.249 1.249 0 001.734-.016l1.864-1.853 3.988 3.964a2.44 2.44 0 00.422 2.852l.94.934-13.293 13.212a1.201 1.201 0 000 1.724 1.219 1.219 0 001.735 0l12.482-12.407.81-.805 1.103 1.096-9.192 9.135a2.963 2.963 0 000 4.205l1.686 1.676a2.98 2.98 0 002.108.87 2.98 2.98 0 002.107-.87l9.192-9.136 1.102 1.096-20.815 20.768c-2.253 2.24-5.9 2.24-8.138.016a5.66 5.66 0 01-1.686-4.044c0-1.53.6-2.964 1.686-4.044l3.502-3.48a1.2 1.2 0 000-1.724 1.219 1.219 0 00-1.735 0l-3.501 3.48a8.082 8.082 0 00-2.416 5.768c0 2.175.86 4.238 2.4 5.768a8.186 8.186 0 005.803 2.385 8.291 8.291 0 005.82-2.385l20.847-20.72 19.875 19.754a8.485 8.485 0 005.998 2.465c2.058 0 4.101-.741 5.674-2.24a8.075 8.075 0 002.561-5.865 8.15 8.15 0 00-2.432-5.929L86.514 72.23zM61.388 38.605c5.074-5.027 12.563-6.493 18.918-3.9-6.128 3.303-12.045 8.83-15.011 13.1l-6.582-6.542 2.675-2.658zM41.22 77.644l-12.255-12.18 4.669-4.641 12.255 12.18-4.669 4.64zm6.339-12.132c-1.054 1.047-1.75 2.352-2.027 3.657l-8.024-7.975c1.313-.274 2.594-.951 3.664-2.014 1.167-1.16 1.88-2.61 2.091-4.06l8.365 8.313c-1.443.21-2.902.919-4.07 2.079zm7.749-1.886l-12.24-12.164 10.294-10.231c.243-.242.568-.387.924-.387.34 0 .681.13.924.387l.908.902 9.5 9.442c.243.241.389.564.389.918 0 .338-.13.677-.39.918l-10.31 10.215zm4.247-.757l5.82-5.784 3.906 3.883-2.901 2.9-2.902 2.9-3.923-3.899zm1.443 25.586a.52.52 0 01-.746 0l-1.686-1.676a.513.513 0 010-.74l9.192-9.136 2.431 2.416L61 88.456zm43.656 13.647c-2.27 2.159-5.966 2.062-8.252-.194L63.998 69.701l8.251-8.201 32.503 32.304a5.746 5.746 0 011.702 4.173 5.74 5.74 0 01-1.799 4.125z" fill="#fff"/></g><defs><clipPath id="clip0"><path fill="#fff" transform="translate(26 31)" d="M0 0h83v76H0z"/></clipPath></defs></svg>